<?xml version="1.0" encoding="utf-8"?>
<!-- Generator: Adobe Illustrator 21.0.0, SVG Export Plug-In . SVG Version: 6.00 Build 0)  -->
<svg version="1.1"
	 id="svg2" inkscape:version="0.91 r13725" sodipodi:docname="Phone.svg" xmlns:cc="http://creativecommons.org/ns#" xmlns:dc="http://purl.org/dc/elements/1.1/" xmlns:inkscape="http://www.inkscape.org/namespaces/inkscape" xmlns:rdf="http://www.w3.org/1999/02/22-rdf-syntax-ns#" xmlns:sodipodi="http://sodipodi.sourceforge.net/DTD/sodipodi-0.dtd" xmlns:svg="http://www.w3.org/2000/svg"
	   
	 xmlns="http://www.w3.org/2000/svg" xmlns:xlink="http://www.w3.org/1999/xlink"
	 x="0px" y="0px" viewBox="0 0 595.3 841.9"
	 style="enable-background:new 0 0 595.3 841.9;" xml:space="preserve">
<style type="text/css">
	.st0{fill:#FFFFFF;stroke:#000000;stroke-width:5.4211;}
	.st1{stroke:#000000;stroke-width:0.8647;}
	.st2{fill:#B3B3B3;stroke:#000000;stroke-width:6.2334;}
	.st3{fill:#5F8DD3;}
</style>
<sodipodi:namedview  bordercolor="#666666" borderopacity="1.0" id="base" inkscape:current-layer="layer2" inkscape:cx="-42.906849" inkscape:cy="393.48758" inkscape:document-units="px" inkscape:pageopacity="0.0" inkscape:pageshadow="2" inkscape:window-height="1075" inkscape:window-maximized="0" inkscape:window-width="1920" inkscape:window-x="30" inkscape:window-y="0" inkscape:zoom="0.49497475" pagecolor="#ffffff" showgrid="true" showguides="false">
	<inkscape:grid  id="grid4433" type="xygrid"></inkscape:grid>
</sodipodi:namedview>
<g id="layer1" inkscape:groupmode="layer" inkscape:label="Background">
</g>
<g id="layer2" inkscape:groupmode="layer" inkscape:label="Phone">
	<path id="rect3402" class="st0" d="M112.1,13.8h372.4c25.5,0,46.3,24.4,46.3,54.5v702.5c0,30.1-20.7,54.5-46.3,54.5H112.1
		c-25.5,0-46.3-24.4-46.3-54.5V68.4C65.8,38.3,86.5,13.8,112.1,13.8z"/>
	<rect id="rect3406" x="99.9" y="74.7" class="st1" width="396.9" height="626.3"/>
	<rect id="rect3410" x="225" y="37.5" width="144" height="7.8"/>
	<rect id="rect3410-9" x="224.4" y="799.5" width="145.7" height="9.4"/>
	<ellipse id="path3427" class="st2" cx="294.5" cy="749.2" rx="40.3" ry="38.4"/>
</g>
<g id="layer3" inkscape:groupmode="layer" inkscape:label="Icons">
	<path id="rect3430" class="st3" d="M130.4,109h31.8c7.2,0,13,5.7,13,12.8v35.3c0,7.1-5.8,12.8-13,12.8h-31.8c-7.2,0-13-5.7-13-12.8
		v-35.3C117.4,114.8,123.2,109,130.4,109z"/>
	<path id="rect3430-5" class="st3" d="M205.3,109.7h31.8c7.2,0,13,5.7,13,12.8v35.3c0,7.1-5.8,12.8-13,12.8h-31.8
		c-7.2,0-13-5.7-13-12.8v-35.3C192.3,115.4,198.1,109.7,205.3,109.7z"/>
	<path id="rect3430-51" class="st3" d="M280.2,109.7H312c7.2,0,13,5.7,13,12.8v35.3c0,7.1-5.8,12.8-13,12.8h-31.8
		c-7.2,0-13-5.7-13-12.8v-35.3C267.2,115.4,273,109.7,280.2,109.7z"/>
	<path id="rect3430-4" class="st3" d="M353.8,109.7h31.8c7.2,0,13,5.7,13,12.8v35.3c0,7.1-5.8,12.8-13,12.8h-31.8
		c-7.2,0-13-5.7-13-12.8v-35.3C340.8,115.4,346.7,109.7,353.8,109.7z"/>
	<path id="rect3430-7" class="st3" d="M427.4,109.7h31.8c7.2,0,13,5.7,13,12.8v35.3c0,7.1-5.8,12.8-13,12.8h-31.8
		c-7.2,0-13-5.7-13-12.8v-35.3C414.4,115.4,420.3,109.7,427.4,109.7z"/>
	<path id="rect3430-50" class="st3" d="M130.4,190h31.8c7.2,0,13,5.7,13,12.8v35.3c0,7.1-5.8,12.8-13,12.8h-31.8
		c-7.2,0-13-5.7-13-12.8v-35.3C117.4,195.7,123.2,190,130.4,190z"/>
	<path id="rect3430-5-9" class="st3" d="M205.3,190.6h31.8c7.2,0,13,5.7,13,12.8v35.3c0,7.1-5.8,12.8-13,12.8h-31.8
		c-7.2,0-13-5.7-13-12.8v-35.3C192.3,196.4,198.1,190.6,205.3,190.6z"/>
	<path id="rect3430-51-5" class="st3" d="M280.2,190.6H312c7.2,0,13,5.7,13,12.8v35.3c0,7.1-5.8,12.8-13,12.8h-31.8
		c-7.2,0-13-5.7-13-12.8v-35.3C267.2,196.4,273,190.6,280.2,190.6z"/>
	<path id="rect3430-4-4" class="st3" d="M353.8,190.6h31.8c7.2,0,13,5.7,13,12.8v35.3c0,7.1-5.8,12.8-13,12.8h-31.8
		c-7.2,0-13-5.7-13-12.8v-35.3C340.8,196.4,346.7,190.6,353.8,190.6z"/>
	<path id="rect3430-7-7" class="st3" d="M427.4,190.6h31.8c7.2,0,13,5.7,13,12.8v35.3c0,7.1-5.8,12.8-13,12.8h-31.8
		c-7.2,0-13-5.7-13-12.8v-35.3C414.4,196.4,420.3,190.6,427.4,190.6z"/>
	<path id="rect3430-6" class="st3" d="M130.4,275.3h31.8c7.2,0,13,5.7,13,12.8v35.3c0,7.1-5.8,12.8-13,12.8h-31.8
		c-7.2,0-13-5.7-13-12.8v-35.3C117.4,281,123.2,275.3,130.4,275.3z"/>
	<path id="rect3430-5-6" class="st3" d="M205.3,275.9h31.8c7.2,0,13,5.7,13,12.8V324c0,7.1-5.8,12.8-13,12.8h-31.8
		c-7.2,0-13-5.7-13-12.8v-35.3C192.3,281.7,198.1,275.9,205.3,275.9z"/>
	<path id="rect3430-51-4" class="st3" d="M280.2,275.9H312c7.2,0,13,5.7,13,12.8V324c0,7.1-5.8,12.8-13,12.8h-31.8
		c-7.2,0-13-5.7-13-12.8v-35.3C267.2,281.7,273,275.9,280.2,275.9z"/>
	<path id="rect3430-4-5" class="st3" d="M353.8,275.9h31.8c7.2,0,13,5.7,13,12.8V324c0,7.1-5.8,12.8-13,12.8h-31.8
		c-7.2,0-13-5.7-13-12.8v-35.3C340.8,281.7,346.7,275.9,353.8,275.9z"/>
	<path id="rect3430-7-75" class="st3" d="M427.4,275.9h31.8c7.2,0,13,5.7,13,12.8V324c0,7.1-5.8,12.8-13,12.8h-31.8
		c-7.2,0-13-5.7-13-12.8v-35.3C414.4,281.7,420.3,275.9,427.4,275.9z"/>
	<path id="rect3430-50-5" class="st3" d="M130.4,357.2h31.8c7.2,0,13,5.7,13,12.8v35.3c0,7.1-5.8,12.8-13,12.8h-31.8
		c-7.2,0-13-5.7-13-12.8V370C117.4,362.9,123.2,357.2,130.4,357.2z"/>
	<path id="rect3430-5-9-1" class="st3" d="M205.3,357.8h31.8c7.2,0,13,5.7,13,12.8v35.3c0,7.1-5.8,12.8-13,12.8h-31.8
		c-7.2,0-13-5.7-13-12.8v-35.3C192.3,363.6,198.1,357.8,205.3,357.8z"/>
	<path id="rect3430-51-5-7" class="st3" d="M280.2,357.8H312c7.2,0,13,5.7,13,12.8v35.3c0,7.1-5.8,12.8-13,12.8h-31.8
		c-7.2,0-13-5.7-13-12.8v-35.3C267.2,363.6,273,357.8,280.2,357.8z"/>
	<path id="rect3430-4-4-6" class="st3" d="M353.8,357.8h31.8c7.2,0,13,5.7,13,12.8v35.3c0,7.1-5.8,12.8-13,12.8h-31.8
		c-7.2,0-13-5.7-13-12.8v-35.3C340.8,363.6,346.7,357.8,353.8,357.8z"/>
	<path id="rect3430-7-7-7" class="st3" d="M427.4,357.8h31.8c7.2,0,13,5.7,13,12.8v35.3c0,7.1-5.8,12.8-13,12.8h-31.8
		c-7.2,0-13-5.7-13-12.8v-35.3C414.4,363.6,420.3,357.8,427.4,357.8z"/>
	<path id="rect3430-1" class="st3" d="M131.7,437.7h31.8c7.2,0,13,5.7,13,12.8v35.3c0,7.1-5.8,12.8-13,12.8h-31.8
		c-7.2,0-13-5.7-13-12.8v-35.3C118.7,443.4,124.5,437.7,131.7,437.7z"/>
	<path id="rect3430-5-1" class="st3" d="M206.6,438.3h31.8c7.2,0,13,5.7,13,12.8v35.3c0,7.1-5.8,12.8-13,12.8h-31.8
		c-7.2,0-13-5.7-13-12.8v-35.3C193.6,444.1,199.4,438.3,206.6,438.3z"/>
	<path id="rect3430-51-7" class="st3" d="M281.5,438.3h31.8c7.2,0,13,5.7,13,12.8v35.3c0,7.1-5.8,12.8-13,12.8h-31.8
		c-7.2,0-13-5.7-13-12.8v-35.3C268.5,444.1,274.4,438.3,281.5,438.3z"/>
	<path id="rect3430-4-52" class="st3" d="M355.2,438.3H387c7.2,0,13,5.7,13,12.8v35.3c0,7.1-5.8,12.8-13,12.8h-31.8
		c-7.2,0-13-5.7-13-12.8v-35.3C342.1,444.1,348,438.3,355.2,438.3z"/>
	<path id="rect3430-7-750" class="st3" d="M428.8,438.3h31.8c7.2,0,13,5.7,13,12.8v35.3c0,7.1-5.8,12.8-13,12.8h-31.8
		c-7.2,0-13-5.7-13-12.8v-35.3C415.8,444.1,421.6,438.3,428.8,438.3z"/>
	<path id="rect3430-50-6" class="st3" d="M131.7,521.5h31.8c7.2,0,13,5.7,13,12.8v35.3c0,7.1-5.8,12.8-13,12.8h-31.8
		c-7.2,0-13-5.7-13-12.8v-35.3C118.7,527.3,124.5,521.5,131.7,521.5z"/>
	<path id="rect3430-5-9-0" class="st3" d="M206.6,523.8h31.8c7.2,0,13,5.7,13,12.8v35.3c0,7.1-5.8,12.8-13,12.8h-31.8
		c-7.2,0-13-5.7-13-12.8v-35.3C193.6,529.5,199.4,523.8,206.6,523.8z"/>
	<path id="rect3430-51-5-4" class="st3" d="M281.5,525.4h31.8c7.2,0,13,5.7,13,12.8v35.3c0,7.1-5.8,12.8-13,12.8h-31.8
		c-7.2,0-13-5.7-13-12.8v-35.3C268.5,531.1,274.4,525.4,281.5,525.4z"/>
	<path id="rect3430-4-4-2" class="st3" d="M355.2,523.8H387c7.2,0,13,5.7,13,12.8v35.3c0,7.1-5.8,12.8-13,12.8h-31.8
		c-7.2,0-13-5.7-13-12.8v-35.3C342.1,529.5,348,523.8,355.2,523.8z"/>
	<path id="rect3430-7-7-9" class="st3" d="M428.8,525.4h31.8c7.2,0,13,5.7,13,12.8v35.3c0,7.1-5.8,12.8-13,12.8h-31.8
		c-7.2,0-13-5.7-13-12.8v-35.3C415.8,531.1,421.6,525.4,428.8,525.4z"/>
	<path id="rect3430-6-5" class="st3" d="M131.7,605.2h31.8c7.2,0,13,5.7,13,12.8v35.3c0,7.1-5.8,12.8-13,12.8h-31.8
		c-7.2,0-13-5.7-13-12.8V618C118.7,610.9,124.5,605.2,131.7,605.2z"/>
	<path id="rect3430-5-6-9" class="st3" d="M206.6,605.8h31.8c7.2,0,13,5.7,13,12.8v35.3c0,7.1-5.8,12.8-13,12.8h-31.8
		c-7.2,0-13-5.7-13-12.8v-35.3C193.6,611.6,199.4,605.8,206.6,605.8z"/>
	<path id="rect3430-51-4-8" class="st3" d="M281.5,605.8h31.8c7.2,0,13,5.7,13,12.8v35.3c0,7.1-5.8,12.8-13,12.8h-31.8
		c-7.2,0-13-5.7-13-12.8v-35.3C268.5,611.6,274.4,605.8,281.5,605.8z"/>
	<path id="rect3430-4-5-6" class="st3" d="M355.2,605.8H387c7.2,0,13,5.7,13,12.8v35.3c0,7.1-5.8,12.8-13,12.8h-31.8
		c-7.2,0-13-5.7-13-12.8v-35.3C342.1,611.6,348,605.8,355.2,605.8z"/>
	<path id="rect3430-7-75-3" class="st3" d="M428.8,605.8h31.8c7.2,0,13,5.7,13,12.8v35.3c0,7.1-5.8,12.8-13,12.8h-31.8
		c-7.2,0-13-5.7-13-12.8v-35.3C415.8,611.6,421.6,605.8,428.8,605.8z"/>
</g>

<animateTransform 
xlink:href="#layer2"
attributeName="transform"
    type="scale"
    from="0,0"
    to="1,1"
    begin="1s"
    dur="7s"
    repeatCount="indefinite"
  />
  
 
  <animateTransform 
xlink:href="#layer3"
attributeName="transform"
    type="scale"
    from="0,0"
    to="1,1"
    begin="1s"
    dur="7s"
    repeatCount="indefinite"
  />
</svg>
